# xmcd
#
# Track frame offsets:
#	182
#	12437
#	23207
#	33960
#	46610
#	57342
#	68282
#	84330
#	98132
#	110975
#	121080
#	132755
#	145642
#	159772
#	172482
#	183697
#	193320
#	206467
#	218402
#	227965
#
# Disc length: 3208 seconds
#
# Revision: 1
# Processed by: cddbd v1.5.2PL0 Copyright (c) Steve Scherf et al.
# Submitted via: EasyCDDAExtractor 2010.6.0.0
#
DISCID=0e0c8614
DTITLE=Banda 11 De Enero - Sabor A Papayera
DYEAR=0000
DGENRE=Folk/Rock
TTITLE0=Guayabo de la Ye
TTITLE1=Manuelito Barrios
TTITLE2=La piragua
TTITLE3=Fiesta en corraleja
TTITLE4=La hamaca grande
TTITLE5=Matilde Lina
TTITLE6=Nostalgia campesina
TTITLE7=Lucero espiritual
TTITLE8=La vaca vieja
TTITLE9=Feria de Manizales
TTITLE10=San Fernando
TTITLE11=Pola Bette
TTITLE12=La ninfa morena
TTITLE13=El Almirante Padilla
TTITLE14=La butifarra de Pacho
TTITLE15=Ave' pa' ve'
TTITLE16=Mi Cali bella
TTITLE17=No vales nada
TTITLE18=El dos negro
TTITLE19=Nube negra
EXTD=ID3G:  81\n
EXTT0=
EXTT1=
EXTT2=
EXTT3=
EXTT4=
EXTT5=
EXTT6=
EXTT7=
EXTT8=
EXTT9=
EXTT10=
EXTT11=
EXTT12=
EXTT13=
EXTT14=
EXTT15=
EXTT16=
EXTT17=
EXTT18=
EXTT19=
PLAYORDER=
